<svg xmlns="http://www.w3.org/2000/svg" xmlns:xlink="http://www.w3.org/1999/xlink" width="500" zoomAndPan="magnify" viewBox="0 0 375 374.999991" height="500" preserveAspectRatio="xMidYMid meet" version="1.0"><defs><g/><clipPath id="ae61cb0828"><path d="M 10.09375 12.085938 L 364.84375 12.085938 L 364.84375 363.085938 L 10.09375 363.085938 Z M 10.09375 12.085938 " clip-rule="nonzero"/></clipPath><clipPath id="62528f572f"><path d="M 271.773438 363.066406 L 103.160156 363.066406 C 51.78125 363.066406 10.09375 321.347656 10.09375 269.9375 L 10.09375 105.238281 C 10.09375 53.828125 51.78125 12.109375 103.160156 12.109375 L 271.773438 12.109375 C 323.152344 12.109375 364.84375 53.828125 364.84375 105.238281 L 364.84375 269.9375 C 364.84375 321.347656 323.152344 363.066406 271.773438 363.066406 Z M 271.773438 363.066406 " clip-rule="nonzero"/></clipPath><linearGradient x1="10.225501" gradientTransform="matrix(0.45266, 0, 0, 0.452962, 6.470703, 5.99533)" y1="11.274509" x2="789.475518" gradientUnits="userSpaceOnUse" y2="790.524463" id="c3561d6553"><stop stop-opacity="1" stop-color="rgb(28.239441%, 93.728638%, 67.059326%)" offset="0"/><stop stop-opacity="1" stop-color="rgb(28.239441%, 93.728638%, 67.059326%)" offset="0.0625"/><stop stop-opacity="1" stop-color="rgb(28.237915%, 93.714905%, 67.066956%)" offset="0.078125"/><stop stop-opacity="1" stop-color="rgb(28.233337%, 93.56842%, 67.152405%)" offset="0.0859375"/><stop stop-opacity="1" stop-color="rgb(28.224182%, 93.304443%, 67.308044%)" offset="0.09375"/><stop stop-opacity="1" stop-color="rgb(28.215027%, 93.03894%, 67.462158%)" offset="0.101563"/><stop stop-opacity="1" stop-color="rgb(28.205872%, 92.774963%, 67.617798%)" offset="0.109375"/><stop stop-opacity="1" stop-color="rgb(28.196716%, 92.510986%, 67.771912%)" offset="0.117188"/><stop stop-opacity="1" stop-color="rgb(28.187561%, 92.247009%, 67.927551%)" offset="0.125"/><stop stop-opacity="1" stop-color="rgb(28.178406%, 91.983032%, 68.081665%)" offset="0.132813"/><stop stop-opacity="1" stop-color="rgb(28.16925%, 91.719055%, 68.237305%)" offset="0.140625"/><stop stop-opacity="1" stop-color="rgb(28.158569%, 91.453552%, 68.391418%)" offset="0.148438"/><stop stop-opacity="1" stop-color="rgb(28.149414%, 91.189575%, 68.547058%)" offset="0.15625"/><stop stop-opacity="1" stop-color="rgb(28.140259%, 90.925598%, 68.701172%)" offset="0.164062"/><stop stop-opacity="1" stop-color="rgb(28.131104%, 90.661621%, 68.856812%)" offset="0.171875"/><stop stop-opacity="1" stop-color="rgb(28.121948%, 90.397644%, 69.010925%)" offset="0.179688"/><stop stop-opacity="1" stop-color="rgb(28.112793%, 90.133667%, 69.166565%)" offset="0.1875"/><stop stop-opacity="1" stop-color="rgb(28.103638%, 89.868164%, 69.320679%)" offset="0.195313"/><stop stop-opacity="1" stop-color="rgb(28.094482%, 89.604187%, 69.476318%)" offset="0.203125"/><stop stop-opacity="1" stop-color="rgb(28.085327%, 89.34021%, 69.630432%)" offset="0.210938"/><stop stop-opacity="1" stop-color="rgb(28.076172%, 89.076233%, 69.786072%)" offset="0.21875"/><stop stop-opacity="1" stop-color="rgb(28.067017%, 88.812256%, 69.940186%)" offset="0.226562"/><stop stop-opacity="1" stop-color="rgb(28.056335%, 88.548279%, 70.095825%)" offset="0.234375"/><stop stop-opacity="1" stop-color="rgb(28.04718%, 88.282776%, 70.249939%)" offset="0.242188"/><stop stop-opacity="1" stop-color="rgb(28.038025%, 88.018799%, 70.405579%)" offset="0.25"/><stop stop-opacity="1" stop-color="rgb(28.02887%, 87.754822%, 70.559692%)" offset="0.257813"/><stop stop-opacity="1" stop-color="rgb(28.019714%, 87.490845%, 70.715332%)" offset="0.265625"/><stop stop-opacity="1" stop-color="rgb(28.010559%, 87.226868%, 70.869446%)" offset="0.273438"/><stop stop-opacity="1" stop-color="rgb(28.001404%, 86.962891%, 71.025085%)" offset="0.28125"/><stop stop-opacity="1" stop-color="rgb(27.992249%, 86.697388%, 71.179199%)" offset="0.289062"/><stop stop-opacity="1" stop-color="rgb(27.983093%, 86.433411%, 71.334839%)" offset="0.296875"/><stop stop-opacity="1" stop-color="rgb(27.973938%, 86.169434%, 71.488953%)" offset="0.304688"/><stop stop-opacity="1" stop-color="rgb(27.964783%, 85.905457%, 71.644592%)" offset="0.3125"/><stop stop-opacity="1" stop-color="rgb(27.955627%, 85.641479%, 71.798706%)" offset="0.320312"/><stop stop-opacity="1" stop-color="rgb(27.944946%, 85.377502%, 71.954346%)" offset="0.328125"/><stop stop-opacity="1" stop-color="rgb(27.935791%, 85.112%, 72.108459%)" offset="0.335938"/><stop stop-opacity="1" stop-color="rgb(27.926636%, 84.848022%, 72.264099%)" offset="0.34375"/><stop stop-opacity="1" stop-color="rgb(27.91748%, 84.584045%, 72.418213%)" offset="0.351563"/><stop stop-opacity="1" stop-color="rgb(27.908325%, 84.320068%, 72.573853%)" offset="0.359375"/><stop stop-opacity="1" stop-color="rgb(27.89917%, 84.056091%, 72.727966%)" offset="0.367188"/><stop stop-opacity="1" stop-color="rgb(27.890015%, 83.792114%, 72.883606%)" offset="0.375"/><stop stop-opacity="1" stop-color="rgb(27.880859%, 83.526611%, 73.03772%)" offset="0.382812"/><stop stop-opacity="1" stop-color="rgb(27.871704%, 83.262634%, 73.193359%)" offset="0.390625"/><stop stop-opacity="1" stop-color="rgb(27.862549%, 82.998657%, 73.347473%)" offset="0.398438"/><stop stop-opacity="1" stop-color="rgb(27.853394%, 82.73468%, 73.503113%)" offset="0.40625"/><stop stop-opacity="1" stop-color="rgb(27.842712%, 82.470703%, 73.658752%)" offset="0.414062"/><stop stop-opacity="1" stop-color="rgb(27.828979%, 82.18689%, 73.823547%)" offset="0.421875"/><stop stop-opacity="1" stop-color="rgb(27.810669%, 81.884766%, 73.997498%)" offset="0.429688"/><stop stop-opacity="1" stop-color="rgb(27.793884%, 81.584167%, 74.172974%)" offset="0.4375"/><stop stop-opacity="1" stop-color="rgb(27.775574%, 81.283569%, 74.346924%)" offset="0.445312"/><stop stop-opacity="1" stop-color="rgb(27.757263%, 80.982971%, 74.520874%)" offset="0.453125"/><stop stop-opacity="1" stop-color="rgb(27.738953%, 80.682373%, 74.69635%)" offset="0.460938"/><stop stop-opacity="1" stop-color="rgb(27.722168%, 80.380249%, 74.8703%)" offset="0.46875"/><stop stop-opacity="1" stop-color="rgb(27.703857%, 80.079651%, 75.04425%)" offset="0.476563"/><stop stop-opacity="1" stop-color="rgb(27.685547%, 79.779053%, 75.219727%)" offset="0.484375"/><stop stop-opacity="1" stop-color="rgb(27.667236%, 79.478455%, 75.393677%)" offset="0.492188"/><stop stop-opacity="1" stop-color="rgb(27.650452%, 79.177856%, 75.569153%)" offset="0.497145"/><stop stop-opacity="1" stop-color="rgb(27.641296%, 79.02832%, 75.656128%)" offset="0.5"/><stop stop-opacity="1" stop-color="rgb(27.632141%, 78.877258%, 75.743103%)" offset="0.502855"/><stop stop-opacity="1" stop-color="rgb(27.622986%, 78.726196%, 75.830078%)" offset="0.507812"/><stop stop-opacity="1" stop-color="rgb(27.613831%, 78.575134%, 75.917053%)" offset="0.515625"/><stop stop-opacity="1" stop-color="rgb(27.59552%, 78.274536%, 76.092529%)" offset="0.523438"/><stop stop-opacity="1" stop-color="rgb(27.577209%, 77.973938%, 76.266479%)" offset="0.53125"/><stop stop-opacity="1" stop-color="rgb(27.560425%, 77.67334%, 76.441956%)" offset="0.539063"/><stop stop-opacity="1" stop-color="rgb(27.542114%, 77.372742%, 76.615906%)" offset="0.546875"/><stop stop-opacity="1" stop-color="rgb(27.523804%, 77.070618%, 76.789856%)" offset="0.554688"/><stop stop-opacity="1" stop-color="rgb(27.505493%, 76.77002%, 76.965332%)" offset="0.5625"/><stop stop-opacity="1" stop-color="rgb(27.488708%, 76.469421%, 77.139282%)" offset="0.570313"/><stop stop-opacity="1" stop-color="rgb(27.470398%, 76.168823%, 77.313232%)" offset="0.578125"/><stop stop-opacity="1" stop-color="rgb(27.452087%, 75.868225%, 77.488708%)" offset="0.585938"/><stop stop-opacity="1" stop-color="rgb(27.433777%, 75.567627%, 77.662659%)" offset="0.59375"/><stop stop-opacity="1" stop-color="rgb(27.416992%, 75.265503%, 77.838135%)" offset="0.601563"/><stop stop-opacity="1" stop-color="rgb(27.398682%, 74.964905%, 78.012085%)" offset="0.609375"/><stop stop-opacity="1" stop-color="rgb(27.380371%, 74.664307%, 78.186035%)" offset="0.617188"/><stop stop-opacity="1" stop-color="rgb(27.362061%, 74.363708%, 78.361511%)" offset="0.625"/><stop stop-opacity="1" stop-color="rgb(27.34375%, 74.06311%, 78.535461%)" offset="0.632813"/><stop stop-opacity="1" stop-color="rgb(27.326965%, 73.760986%, 78.710938%)" offset="0.640625"/><stop stop-opacity="1" stop-color="rgb(27.308655%, 73.460388%, 78.884888%)" offset="0.648438"/><stop stop-opacity="1" stop-color="rgb(27.290344%, 73.15979%, 79.058838%)" offset="0.65625"/><stop stop-opacity="1" stop-color="rgb(27.272034%, 72.859192%, 79.234314%)" offset="0.664062"/><stop stop-opacity="1" stop-color="rgb(27.255249%, 72.558594%, 79.408264%)" offset="0.671875"/><stop stop-opacity="1" stop-color="rgb(27.236938%, 72.257996%, 79.582214%)" offset="0.679688"/><stop stop-opacity="1" stop-color="rgb(27.218628%, 71.955872%, 79.75769%)" offset="0.6875"/><stop stop-opacity="1" stop-color="rgb(27.200317%, 71.655273%, 79.931641%)" offset="0.695312"/><stop stop-opacity="1" stop-color="rgb(27.183533%, 71.354675%, 80.107117%)" offset="0.703125"/><stop stop-opacity="1" stop-color="rgb(27.165222%, 71.054077%, 80.281067%)" offset="0.710937"/><stop stop-opacity="1" stop-color="rgb(27.146912%, 70.753479%, 80.455017%)" offset="0.71875"/><stop stop-opacity="1" stop-color="rgb(27.128601%, 70.451355%, 80.630493%)" offset="0.726562"/><stop stop-opacity="1" stop-color="rgb(27.110291%, 70.150757%, 80.804443%)" offset="0.734375"/><stop stop-opacity="1" stop-color="rgb(27.093506%, 69.850159%, 80.979919%)" offset="0.742187"/><stop stop-opacity="1" stop-color="rgb(27.075195%, 69.549561%, 81.15387%)" offset="0.75"/><stop stop-opacity="1" stop-color="rgb(27.056885%, 69.248962%, 81.32782%)" offset="0.757812"/><stop stop-opacity="1" stop-color="rgb(27.038574%, 68.948364%, 81.503296%)" offset="0.765625"/><stop stop-opacity="1" stop-color="rgb(27.02179%, 68.64624%, 81.677246%)" offset="0.773437"/><stop stop-opacity="1" stop-color="rgb(27.003479%, 68.345642%, 81.851196%)" offset="0.78125"/><stop stop-opacity="1" stop-color="rgb(26.985168%, 68.045044%, 82.026672%)" offset="0.789062"/><stop stop-opacity="1" stop-color="rgb(26.966858%, 67.744446%, 82.200623%)" offset="0.796875"/><stop stop-opacity="1" stop-color="rgb(26.950073%, 67.443848%, 82.376099%)" offset="0.804687"/><stop stop-opacity="1" stop-color="rgb(26.931763%, 67.14325%, 82.550049%)" offset="0.8125"/><stop stop-opacity="1" stop-color="rgb(26.913452%, 66.841125%, 82.723999%)" offset="0.820312"/><stop stop-opacity="1" stop-color="rgb(26.895142%, 66.540527%, 82.899475%)" offset="0.828125"/><stop stop-opacity="1" stop-color="rgb(26.876831%, 66.239929%, 83.073425%)" offset="0.835937"/><stop stop-opacity="1" stop-color="rgb(26.860046%, 65.939331%, 83.248901%)" offset="0.84375"/><stop stop-opacity="1" stop-color="rgb(26.841736%, 65.638733%, 83.422852%)" offset="0.851562"/><stop stop-opacity="1" stop-color="rgb(26.823425%, 65.336609%, 83.596802%)" offset="0.859375"/><stop stop-opacity="1" stop-color="rgb(26.805115%, 65.036011%, 83.772278%)" offset="0.867188"/><stop stop-opacity="1" stop-color="rgb(26.78833%, 64.735413%, 83.946228%)" offset="0.875"/><stop stop-opacity="1" stop-color="rgb(26.77002%, 64.434814%, 84.120178%)" offset="0.882812"/><stop stop-opacity="1" stop-color="rgb(26.751709%, 64.134216%, 84.295654%)" offset="0.890625"/><stop stop-opacity="1" stop-color="rgb(26.733398%, 63.833618%, 84.469604%)" offset="0.898438"/><stop stop-opacity="1" stop-color="rgb(26.715088%, 63.531494%, 84.645081%)" offset="0.90625"/><stop stop-opacity="1" stop-color="rgb(26.698303%, 63.230896%, 84.819031%)" offset="0.914063"/><stop stop-opacity="1" stop-color="rgb(26.679993%, 62.930298%, 84.992981%)" offset="0.921875"/><stop stop-opacity="1" stop-color="rgb(26.669312%, 62.763977%, 85.090637%)" offset="0.9375"/><stop stop-opacity="1" stop-color="rgb(26.669312%, 62.748718%, 85.099792%)" offset="1"/></linearGradient><clipPath id="de3749ce8d"><path d="M 106 210 L 269 210 L 269 223.855469 L 106 223.855469 Z M 106 210 " clip-rule="nonzero"/></clipPath><clipPath id="6d36dce98a"><path d="M 77.472656 67.855469 L 297.222656 67.855469 L 297.222656 223 L 77.472656 223 Z M 77.472656 67.855469 " clip-rule="nonzero"/></clipPath></defs><g clip-path="url(#ae61cb0828)"><g clip-path="url(#62528f572f)"><path fill="url(#c3561d6553)" d="M 10.09375 12.109375 L 10.09375 363.066406 L 364.84375 363.066406 L 364.84375 12.109375 Z M 10.09375 12.109375 " fill-rule="nonzero"/></g></g><g clip-path="url(#de3749ce8d)"><path fill="#fdfefe" d="M 106.429688 223.214844 C 107.242188 222.941406 108.054688 222.671875 108.871094 222.414062 L 111.316406 221.625 C 112.953125 221.132812 114.59375 220.640625 116.242188 220.167969 C 117.890625 219.707031 119.542969 219.265625 121.199219 218.820312 C 122.863281 218.402344 124.527344 217.992188 126.191406 217.585938 C 132.867188 216.007812 139.605469 214.707031 146.40625 213.683594 C 160.03125 211.636719 173.730469 210.640625 187.507812 210.703125 C 201.28125 210.757812 214.972656 211.847656 228.582031 213.964844 C 235.367188 215.027344 242.097656 216.34375 248.78125 217.914062 L 251.277344 218.527344 L 252.523438 218.832031 C 252.941406 218.933594 253.355469 219.039062 253.769531 219.152344 C 255.417969 219.589844 257.082031 220.023438 258.730469 220.488281 C 260.378906 220.953125 262.023438 221.4375 263.660156 221.929688 L 266.109375 222.707031 L 267.332031 223.097656 L 268.550781 223.496094 L 258.429688 221.867188 L 253.367188 221.097656 L 248.308594 220.367188 C 241.566406 219.421875 234.820312 218.589844 228.066406 217.921875 C 214.558594 216.566406 201.03125 215.851562 187.476562 215.773438 C 173.933594 215.714844 160.402344 216.332031 146.882812 217.628906 C 140.125 218.265625 133.378906 219.066406 126.640625 220.023438 L 121.597656 220.753906 L 116.542969 221.539062 C 114.863281 221.820312 113.179688 222.09375 111.492188 222.367188 C 109.804688 222.644531 108.125 222.949219 106.429688 223.214844 Z M 106.429688 223.214844 " fill-opacity="1" fill-rule="nonzero"/></g><g clip-path="url(#6d36dce98a)"><path fill="#fdfefe" d="M 112.097656 206.148438 C 110.683594 184.734375 116.871094 163.453125 130.910156 146.777344 C 139.210938 136.917969 149.605469 130.699219 160.285156 123.8125 C 177.394531 112.785156 184.214844 107.175781 186.503906 105.117188 L 187.164062 92.832031 C 186.402344 92.742188 185.652344 92.585938 184.921875 92.359375 C 184.1875 92.136719 183.480469 91.847656 182.800781 91.492188 C 182.117188 91.136719 181.476562 90.722656 180.871094 90.25 C 180.265625 89.777344 179.710938 89.253906 179.199219 88.679688 C 178.691406 88.101562 178.238281 87.488281 177.84375 86.828125 C 177.449219 86.171875 177.117188 85.484375 176.847656 84.765625 C 176.578125 84.046875 176.375 83.308594 176.242188 82.550781 C 176.105469 81.796875 176.042969 81.035156 176.046875 80.265625 C 176.050781 79.5 176.128906 78.738281 176.273438 77.984375 C 176.417969 77.230469 176.628906 76.496094 176.910156 75.78125 C 177.1875 75.066406 177.53125 74.382812 177.933594 73.730469 C 178.339844 73.078125 178.800781 72.46875 179.316406 71.902344 C 179.832031 71.332031 180.398438 70.816406 181.007812 70.351562 C 181.621094 69.890625 182.269531 69.484375 182.953125 69.136719 C 183.640625 68.792969 184.351562 68.511719 185.085938 68.296875 C 185.824219 68.082031 186.574219 67.9375 187.335938 67.859375 C 186.816406 68.292969 186.335938 68.773438 185.898438 69.292969 C 185.460938 69.8125 185.074219 70.371094 184.734375 70.957031 C 184.394531 71.546875 184.109375 72.160156 183.878906 72.800781 C 183.644531 73.441406 183.472656 74.09375 183.355469 74.765625 C 183.242188 75.433594 183.183594 76.109375 183.1875 76.789062 C 183.191406 77.46875 183.253906 78.144531 183.375 78.8125 C 183.496094 79.484375 183.675781 80.136719 183.910156 80.773438 C 184.148438 81.410156 184.4375 82.023438 184.785156 82.609375 C 185.128906 83.195312 185.523438 83.746094 185.964844 84.261719 C 186.40625 84.78125 186.890625 85.253906 187.414062 85.6875 C 187.941406 86.117188 188.5 86.5 189.089844 86.832031 C 189.683594 87.167969 190.300781 87.445312 190.941406 87.671875 C 191.585938 87.894531 192.242188 88.0625 192.914062 88.171875 C 193.582031 88.277344 194.257812 88.328125 194.9375 88.316406 C 195.621094 88.308594 196.292969 88.238281 196.960938 88.109375 C 197.628906 87.980469 198.28125 87.792969 198.914062 87.550781 C 198.335938 88.378906 197.667969 89.125 196.90625 89.792969 C 196.148438 90.460938 195.320312 91.027344 194.425781 91.492188 C 193.527344 91.957031 192.589844 92.3125 191.609375 92.550781 C 190.628906 92.792969 189.632812 92.910156 188.621094 92.910156 C 188.351562 92.910156 188.082031 92.898438 187.816406 92.882812 L 188.476562 105.109375 C 190.761719 107.164062 197.582031 112.773438 214.6875 123.800781 C 225.367188 130.691406 235.761719 136.910156 244.0625 146.769531 C 258.171875 163.53125 264.351562 184.941406 262.855469 206.464844 C 256.785156 204.847656 250.609375 203.410156 244.394531 202.167969 C 225.609375 198.410156 206.636719 196.492188 187.476562 196.410156 L 186.378906 196.410156 C 167.488281 196.410156 148.6875 198.242188 130.496094 201.851562 C 124.289062 203.089844 118.132812 204.527344 112.097656 206.148438 Z M 189.585938 79.464844 L 188.851562 83.75 L 192.703125 81.726562 L 196.550781 83.75 L 195.820312 79.464844 L 198.929688 76.433594 L 194.628906 75.808594 L 192.707031 71.910156 L 190.78125 75.808594 L 186.480469 76.433594 Z M 290.996094 219.484375 C 288.808594 218.652344 286.609375 217.84375 284.40625 217.039062 C 283.855469 216.832031 283.304688 216.644531 282.75 216.453125 L 281.082031 215.890625 L 277.75 214.761719 L 276.917969 214.480469 C 276.636719 214.386719 276.355469 214.304688 276.078125 214.214844 L 274.398438 213.695312 L 271.035156 212.648438 C 262.042969 209.9375 252.925781 207.664062 243.679688 205.820312 C 225.125 202.109375 206.390625 200.214844 187.472656 200.136719 C 168.59375 200.066406 149.703125 201.835938 131.222656 205.503906 C 121.984375 207.328125 112.867188 209.625 103.863281 212.386719 C 101.625 213.105469 99.386719 213.816406 97.160156 214.542969 C 94.945312 215.320312 92.726562 216.085938 90.523438 216.882812 C 88.328125 217.707031 86.136719 218.546875 83.957031 219.398438 C 81.789062 220.296875 79.625 221.191406 77.476562 222.121094 C 79.761719 221.59375 82.03125 221.027344 84.296875 220.464844 C 86.574219 219.933594 88.847656 219.40625 91.113281 218.855469 C 93.390625 218.359375 95.664062 217.84375 97.933594 217.335938 L 104.761719 215.90625 C 113.875 214.066406 123.015625 212.496094 132.1875 211.246094 C 141.363281 209.996094 150.5625 209.050781 159.773438 208.433594 C 168.984375 207.816406 178.214844 207.527344 187.445312 207.566406 C 196.675781 207.605469 205.902344 207.96875 215.113281 208.648438 C 224.328125 209.324219 233.527344 210.320312 242.699219 211.582031 C 251.875 212.839844 261.023438 214.40625 270.152344 216.191406 L 273.574219 216.875 C 274.714844 217.105469 275.859375 217.320312 276.996094 217.570312 L 283.832031 219.027344 L 290.667969 220.554688 C 292.941406 221.089844 295.214844 221.621094 297.507812 222.117188 C 295.34375 221.21875 293.171875 220.351562 290.992188 219.484375 Z M 290.996094 219.484375 " fill-opacity="1" fill-rule="nonzero"/></g><g fill="#fdfefe" fill-opacity="1"><g transform="translate(51.814453, 275.586968)"><g><path d="M 7.78125 0.921875 C 7.195312 0.921875 6.609375 0.890625 6.015625 0.828125 C 5.421875 0.765625 4.816406 0.671875 4.203125 0.546875 C 3.078125 0.304688 2.257812 -0.191406 1.75 -0.953125 C 1.25 -1.722656 1 -2.671875 1 -3.796875 C 1 -6.546875 1.78125 -7.691406 3.34375 -7.234375 C 4.070312 -6.953125 4.894531 -6.8125 5.8125 -6.8125 C 7.15625 -6.8125 8.144531 -7.171875 8.78125 -7.890625 C 9.425781 -8.609375 9.765625 -9.757812 9.796875 -11.34375 C 9.828125 -12.957031 9.84375 -14.585938 9.84375 -16.234375 C 9.84375 -17.890625 9.84375 -19.523438 9.84375 -21.140625 C 9.84375 -22.265625 9.84375 -23.375 9.84375 -24.46875 C 9.84375 -25.570312 9.84375 -26.6875 9.84375 -27.8125 C 9.8125 -29.0625 10.128906 -30.019531 10.796875 -30.6875 C 11.460938 -31.363281 12.421875 -31.703125 13.671875 -31.703125 L 14.5 -31.703125 C 15.75 -31.703125 16.707031 -31.363281 17.375 -30.6875 C 18.050781 -30.019531 18.375 -29.0625 18.34375 -27.8125 C 18.34375 -25.007812 18.347656 -22.1875 18.359375 -19.34375 C 18.378906 -16.507812 18.390625 -13.675781 18.390625 -10.84375 C 18.390625 -6.90625 17.4375 -3.957031 15.53125 -2 C 13.625 -0.0507812 11.039062 0.921875 7.78125 0.921875 Z M 7.78125 0.921875 "/></g></g></g><g fill="#fdfefe" fill-opacity="1"><g transform="translate(73.402918, 275.586968)"><g><path d="M 13.453125 0.453125 C 9.359375 0.453125 6.363281 -0.664062 4.46875 -2.90625 C 2.582031 -5.144531 1.640625 -8.519531 1.640625 -13.03125 C 1.640625 -21.488281 5.578125 -25.71875 13.453125 -25.71875 C 16.285156 -25.71875 18.5625 -25.117188 20.28125 -23.921875 C 22.007812 -22.734375 23.21875 -21.0625 23.90625 -18.90625 C 24.59375 -16.757812 24.78125 -14.269531 24.46875 -11.4375 C 24.414062 -10.945312 24.191406 -10.703125 23.796875 -10.703125 L 9.203125 -10.703125 C 9.253906 -9.148438 9.472656 -7.945312 9.859375 -7.09375 C 10.242188 -6.238281 10.75 -5.648438 11.375 -5.328125 C 12 -5.003906 12.707031 -4.84375 13.5 -4.84375 C 14.6875 -4.84375 15.628906 -5.039062 16.328125 -5.4375 C 16.910156 -5.832031 17.359375 -6.210938 17.671875 -6.578125 C 17.992188 -6.953125 18.335938 -7.257812 18.703125 -7.5 C 19.078125 -7.75 19.582031 -7.875 20.21875 -7.875 C 21.40625 -7.875 22.347656 -7.570312 23.046875 -6.96875 C 23.753906 -6.375 23.941406 -5.5625 23.609375 -4.53125 C 22.535156 -1.207031 19.148438 0.453125 13.453125 0.453125 Z M 9.234375 -15 L 16.75 -15 C 16.8125 -16.832031 16.550781 -18.207031 15.96875 -19.125 C 15.382812 -20.039062 14.421875 -20.5 13.078125 -20.5 C 11.890625 -20.5 10.945312 -20.046875 10.25 -19.140625 C 9.550781 -18.242188 9.210938 -16.863281 9.234375 -15 Z M 9.234375 -15 "/></g></g></g><g fill="#fdfefe" fill-opacity="1"><g transform="translate(99.839638, 275.586968)"><g><path d="M 6.5 -28.5 C 4.820312 -28.5 3.609375 -28.800781 2.859375 -29.40625 C 2.109375 -30.019531 1.734375 -31.015625 1.734375 -32.390625 C 1.734375 -33.765625 2.109375 -34.753906 2.859375 -35.359375 C 3.609375 -35.972656 4.820312 -36.28125 6.5 -36.28125 C 8.207031 -36.28125 9.425781 -35.972656 10.15625 -35.359375 C 10.882812 -34.753906 11.25 -33.765625 11.25 -32.390625 C 11.25 -31.015625 10.882812 -30.019531 10.15625 -29.40625 C 9.425781 -28.800781 8.207031 -28.5 6.5 -28.5 Z M 0.09375 10.0625 C -0.300781 10.0625 -0.679688 10.046875 -1.046875 10.015625 C -1.410156 9.984375 -1.765625 9.9375 -2.109375 9.875 C -3.234375 9.695312 -4.03125 9.222656 -4.5 8.453125 C -4.976562 7.691406 -5.171875 6.796875 -5.078125 5.765625 C -4.984375 4.785156 -4.585938 4.21875 -3.890625 4.0625 C -3.191406 3.914062 -2.1875 3.890625 -0.875 3.984375 C 0.226562 4.015625 1.128906 3.722656 1.828125 3.109375 C 2.523438 2.503906 2.875 1.515625 2.875 0.140625 C 2.875 -1.296875 2.867188 -2.984375 2.859375 -4.921875 C 2.847656 -6.859375 2.84375 -9.132812 2.84375 -11.75 C 2.84375 -13.375 2.832031 -14.992188 2.8125 -16.609375 C 2.800781 -18.222656 2.796875 -19.820312 2.796875 -21.40625 C 2.796875 -24 4.03125 -25.296875 6.5 -25.296875 C 8.9375 -25.296875 10.15625 -24 10.15625 -21.40625 C 10.15625 -19.820312 10.160156 -18.222656 10.171875 -16.609375 C 10.191406 -14.992188 10.203125 -13.375 10.203125 -11.75 C 10.203125 -9.039062 10.203125 -6.675781 10.203125 -4.65625 C 10.203125 -2.644531 10.21875 -0.878906 10.25 0.640625 C 10.28125 2.929688 9.882812 4.769531 9.0625 6.15625 C 8.238281 7.539062 7.0625 8.535156 5.53125 9.140625 C 4.007812 9.753906 2.195312 10.0625 0.09375 10.0625 Z M 0.09375 10.0625 "/></g></g></g><g fill="#fdfefe" fill-opacity="1"><g transform="translate(112.875041, 275.586968)"><g><path d="M 9.5625 0.453125 C 8.0625 0.453125 6.691406 0.210938 5.453125 -0.265625 C 4.222656 -0.753906 3.242188 -1.507812 2.515625 -2.53125 C 1.785156 -3.5625 1.421875 -4.867188 1.421875 -6.453125 C 1.421875 -9.316406 2.628906 -11.472656 5.046875 -12.921875 C 7.472656 -14.367188 11.265625 -15.019531 16.421875 -14.875 L 16.421875 -16.421875 C 16.421875 -18.097656 16.179688 -19.238281 15.703125 -19.84375 C 15.234375 -20.457031 14.5 -20.765625 13.5 -20.765625 C 12.914062 -20.765625 12.378906 -20.679688 11.890625 -20.515625 C 11.398438 -20.347656 11.019531 -20.050781 10.75 -19.625 C 10.320312 -18.957031 9.960938 -18.378906 9.671875 -17.890625 C 9.378906 -17.398438 9.050781 -17.023438 8.6875 -16.765625 C 8.320312 -16.503906 7.757812 -16.375 7 -16.375 L 6.546875 -16.375 C 5.265625 -16.375 4.234375 -16.722656 3.453125 -17.421875 C 2.671875 -18.128906 2.46875 -19.109375 2.84375 -20.359375 C 3.351562 -22.160156 4.523438 -23.503906 6.359375 -24.390625 C 8.191406 -25.273438 10.769531 -25.71875 14.09375 -25.71875 C 20.894531 -25.71875 24.296875 -22.664062 24.296875 -16.5625 C 24.296875 -13.8125 24.300781 -11.414062 24.3125 -9.375 C 24.332031 -7.332031 24.375 -5.535156 24.4375 -3.984375 C 24.488281 -2.703125 24.207031 -1.71875 23.59375 -1.03125 C 22.988281 -0.34375 22.0625 0 20.8125 0 L 20.40625 0 C 18.082031 0 16.832031 -0.363281 16.65625 -1.09375 C 16.59375 -1.28125 16.546875 -1.460938 16.515625 -1.640625 C 16.484375 -1.828125 16.453125 -2.015625 16.421875 -2.203125 C 15.503906 -1.316406 14.453125 -0.648438 13.265625 -0.203125 C 12.078125 0.234375 10.84375 0.453125 9.5625 0.453125 Z M 11.984375 -4.71875 C 13.023438 -4.71875 13.910156 -4.921875 14.640625 -5.328125 C 15.367188 -5.742188 15.992188 -6.332031 16.515625 -7.09375 L 16.515625 -11.203125 C 15.140625 -11.171875 13.859375 -11.0625 12.671875 -10.875 C 11.484375 -10.695312 10.519531 -10.363281 9.78125 -9.875 C 9.050781 -9.394531 8.6875 -8.664062 8.6875 -7.6875 C 8.6875 -6.832031 8.96875 -6.125 9.53125 -5.5625 C 10.101562 -5 10.921875 -4.71875 11.984375 -4.71875 Z M 11.984375 -4.71875 "/></g></g></g><g fill="#fdfefe" fill-opacity="1"><g transform="translate(139.494718, 275.586968)"><g><path d="M 24.796875 -4.296875 C 25.222656 -2.984375 25.128906 -1.9375 24.515625 -1.15625 C 23.910156 -0.382812 22.90625 0 21.5 0 L 20.21875 0 C 17.9375 0 16.472656 -1.1875 15.828125 -3.5625 C 15.335938 -5.363281 14.878906 -6.753906 14.453125 -7.734375 C 14.023438 -8.710938 13.546875 -9.390625 13.015625 -9.765625 C 12.484375 -10.148438 11.835938 -10.34375 11.078125 -10.34375 L 10.390625 -10.34375 C 10.390625 -9.269531 10.390625 -8.195312 10.390625 -7.125 C 10.390625 -6.0625 10.40625 -4.984375 10.4375 -3.890625 C 10.4375 -1.296875 9.140625 0 6.546875 0 L 6.265625 0 C 3.671875 0 2.375 -1.296875 2.375 -3.890625 C 2.40625 -6.117188 2.4375 -8.304688 2.46875 -10.453125 C 2.5 -12.597656 2.515625 -14.800781 2.515625 -17.0625 C 2.515625 -19.070312 2.5 -21.097656 2.46875 -23.140625 C 2.4375 -25.191406 2.40625 -27.222656 2.375 -29.234375 C 2.375 -31.828125 3.671875 -33.125 6.265625 -33.125 L 6.546875 -33.125 C 9.140625 -33.125 10.4375 -31.828125 10.4375 -29.234375 C 10.4375 -27.222656 10.4375 -25.191406 10.4375 -23.140625 C 10.4375 -21.097656 10.421875 -19.070312 10.390625 -17.0625 L 10.390625 -15.28125 C 11.484375 -15.894531 12.441406 -16.796875 13.265625 -17.984375 C 14.085938 -19.171875 14.726562 -20.46875 15.1875 -21.875 C 15.550781 -23 16.0625 -23.847656 16.71875 -24.421875 C 17.375 -25.003906 18.28125 -25.296875 19.4375 -25.296875 L 20.359375 -25.296875 C 21.796875 -25.296875 22.847656 -24.867188 23.515625 -24.015625 C 24.179688 -23.160156 24.164062 -22.078125 23.46875 -20.765625 C 22.613281 -19.210938 21.613281 -17.847656 20.46875 -16.671875 C 19.320312 -15.503906 18.15625 -14.675781 16.96875 -14.1875 L 16.96875 -14 C 18.3125 -13.84375 19.425781 -13.472656 20.3125 -12.890625 C 21.195312 -12.316406 21.984375 -11.359375 22.671875 -10.015625 C 23.359375 -8.671875 24.066406 -6.765625 24.796875 -4.296875 Z M 24.796875 -4.296875 "/></g></g></g><g fill="#fdfefe" fill-opacity="1"><g transform="translate(166.891941, 275.586968)"><g/></g></g><g fill="#fdfefe" fill-opacity="1"><g transform="translate(178.326511, 275.586968)"><g><path d="M 32.25 -31.703125 C 34.84375 -31.703125 36.140625 -30.40625 36.140625 -27.8125 C 36.140625 -25.832031 36.128906 -23.84375 36.109375 -21.84375 C 36.097656 -19.84375 36.09375 -17.851562 36.09375 -15.875 C 36.09375 -13.863281 36.097656 -11.859375 36.109375 -9.859375 C 36.128906 -7.859375 36.140625 -5.867188 36.140625 -3.890625 C 36.140625 -1.296875 34.84375 0 32.25 0 L 31.4375 0 C 28.84375 0 27.546875 -1.296875 27.546875 -3.890625 C 27.578125 -5.867188 27.597656 -7.859375 27.609375 -9.859375 C 27.628906 -11.859375 27.640625 -13.863281 27.640625 -15.875 L 27.59375 -21.921875 L 27.40625 -21.921875 L 22.1875 -6.8125 C 21.457031 -4.707031 20.34375 -3.65625 18.84375 -3.65625 C 17.320312 -3.65625 16.226562 -4.722656 15.5625 -6.859375 L 10.75 -21.921875 L 10.515625 -21.921875 C 10.546875 -19.140625 10.578125 -16.695312 10.609375 -14.59375 C 10.640625 -12.488281 10.675781 -10.582031 10.71875 -8.875 C 10.769531 -7.164062 10.828125 -5.519531 10.890625 -3.9375 C 10.953125 -2.65625 10.660156 -1.675781 10.015625 -1 C 9.378906 -0.332031 8.453125 0 7.234375 0 C 6.015625 0 5.078125 -0.332031 4.421875 -1 C 3.765625 -1.675781 3.453125 -2.640625 3.484375 -3.890625 C 3.503906 -11.878906 3.503906 -19.851562 3.484375 -27.8125 C 3.453125 -29.0625 3.769531 -30.019531 4.4375 -30.6875 C 5.101562 -31.363281 6.0625 -31.703125 7.3125 -31.703125 L 11.53125 -31.703125 C 13.726562 -31.703125 15.207031 -30.679688 15.96875 -28.640625 L 19.90625 -18.25 L 23.1875 -28.5 C 23.863281 -30.632812 25.332031 -31.703125 27.59375 -31.703125 Z M 32.25 -31.703125 "/></g></g></g><g fill="#fdfefe" fill-opacity="1"><g transform="translate(217.890118, 275.586968)"><g><path d="M 9.5625 0.453125 C 8.0625 0.453125 6.691406 0.210938 5.453125 -0.265625 C 4.222656 -0.753906 3.242188 -1.507812 2.515625 -2.53125 C 1.785156 -3.5625 1.421875 -4.867188 1.421875 -6.453125 C 1.421875 -9.316406 2.628906 -11.472656 5.046875 -12.921875 C 7.472656 -14.367188 11.265625 -15.019531 16.421875 -14.875 L 16.421875 -16.421875 C 16.421875 -18.097656 16.179688 -19.238281 15.703125 -19.84375 C 15.234375 -20.457031 14.5 -20.765625 13.5 -20.765625 C 12.914062 -20.765625 12.378906 -20.679688 11.890625 -20.515625 C 11.398438 -20.347656 11.019531 -20.050781 10.75 -19.625 C 10.320312 -18.957031 9.960938 -18.378906 9.671875 -17.890625 C 9.378906 -17.398438 9.050781 -17.023438 8.6875 -16.765625 C 8.320312 -16.503906 7.757812 -16.375 7 -16.375 L 6.546875 -16.375 C 5.265625 -16.375 4.234375 -16.722656 3.453125 -17.421875 C 2.671875 -18.128906 2.46875 -19.109375 2.84375 -20.359375 C 3.351562 -22.160156 4.523438 -23.503906 6.359375 -24.390625 C 8.191406 -25.273438 10.769531 -25.71875 14.09375 -25.71875 C 20.894531 -25.71875 24.296875 -22.664062 24.296875 -16.5625 C 24.296875 -13.8125 24.300781 -11.414062 24.3125 -9.375 C 24.332031 -7.332031 24.375 -5.535156 24.4375 -3.984375 C 24.488281 -2.703125 24.207031 -1.71875 23.59375 -1.03125 C 22.988281 -0.34375 22.0625 0 20.8125 0 L 20.40625 0 C 18.082031 0 16.832031 -0.363281 16.65625 -1.09375 C 16.59375 -1.28125 16.546875 -1.460938 16.515625 -1.640625 C 16.484375 -1.828125 16.453125 -2.015625 16.421875 -2.203125 C 15.503906 -1.316406 14.453125 -0.648438 13.265625 -0.203125 C 12.078125 0.234375 10.84375 0.453125 9.5625 0.453125 Z M 11.984375 -4.71875 C 13.023438 -4.71875 13.910156 -4.921875 14.640625 -5.328125 C 15.367188 -5.742188 15.992188 -6.332031 16.515625 -7.09375 L 16.515625 -11.203125 C 15.140625 -11.171875 13.859375 -11.0625 12.671875 -10.875 C 11.484375 -10.695312 10.519531 -10.363281 9.78125 -9.875 C 9.050781 -9.394531 8.6875 -8.664062 8.6875 -7.6875 C 8.6875 -6.832031 8.96875 -6.125 9.53125 -5.5625 C 10.101562 -5 10.921875 -4.71875 11.984375 -4.71875 Z M 11.984375 -4.71875 "/></g></g></g><g fill="#fdfefe" fill-opacity="1"><g transform="translate(244.509783, 275.586968)"><g><path d="M 12.171875 0.546875 C 9.210938 0.546875 6.929688 0.132812 5.328125 -0.6875 C 3.722656 -1.507812 2.664062 -2.710938 2.15625 -4.296875 C 1.757812 -5.546875 1.894531 -6.519531 2.5625 -7.21875 C 3.226562 -7.925781 4.097656 -8.28125 5.171875 -8.28125 L 5.3125 -8.28125 C 6.039062 -8.28125 6.585938 -8.15625 6.953125 -7.90625 C 7.316406 -7.664062 7.644531 -7.320312 7.9375 -6.875 C 8.226562 -6.4375 8.585938 -5.929688 9.015625 -5.359375 C 9.441406 -4.804688 10.382812 -4.53125 11.84375 -4.53125 C 13.28125 -4.53125 14.285156 -4.757812 14.859375 -5.21875 C 15.441406 -5.675781 15.734375 -6.238281 15.734375 -6.90625 C 15.734375 -7.757812 15.484375 -8.398438 14.984375 -8.828125 C 14.484375 -9.253906 13.828125 -9.570312 13.015625 -9.78125 C 12.203125 -10 11.304688 -10.179688 10.328125 -10.328125 C 9.359375 -10.484375 8.378906 -10.679688 7.390625 -10.921875 C 6.398438 -11.171875 5.5 -11.546875 4.6875 -12.046875 C 3.882812 -12.554688 3.226562 -13.28125 2.71875 -14.21875 C 2.21875 -15.164062 1.96875 -16.40625 1.96875 -17.9375 C 1.96875 -23.125 5.550781 -25.71875 12.71875 -25.71875 C 18.175781 -25.71875 21.410156 -24.113281 22.421875 -20.90625 C 22.785156 -19.6875 22.628906 -18.734375 21.953125 -18.046875 C 21.285156 -17.359375 20.421875 -17.015625 19.359375 -17.015625 L 19.171875 -17.015625 C 18.460938 -17.015625 17.914062 -17.128906 17.53125 -17.359375 C 17.15625 -17.585938 16.820312 -17.90625 16.53125 -18.3125 C 16.25 -18.726562 15.878906 -19.195312 15.421875 -19.71875 C 14.929688 -20.207031 14.03125 -20.453125 12.71875 -20.453125 C 11.5 -20.453125 10.660156 -20.253906 10.203125 -19.859375 C 9.742188 -19.460938 9.515625 -18.910156 9.515625 -18.203125 C 9.515625 -17.296875 9.847656 -16.628906 10.515625 -16.203125 C 11.191406 -15.773438 12.046875 -15.472656 13.078125 -15.296875 C 14.117188 -15.128906 15.234375 -14.953125 16.421875 -14.765625 C 17.609375 -14.585938 18.71875 -14.285156 19.75 -13.859375 C 20.789062 -13.429688 21.644531 -12.753906 22.3125 -11.828125 C 22.988281 -10.898438 23.328125 -9.597656 23.328125 -7.921875 C 23.328125 -5.109375 22.378906 -2.992188 20.484375 -1.578125 C 18.597656 -0.160156 15.828125 0.546875 12.171875 0.546875 Z M 12.171875 0.546875 "/></g></g></g><g fill="#fdfefe" fill-opacity="1"><g transform="translate(269.574357, 275.586968)"><g><path d="M 6.5 -28.5 C 4.820312 -28.5 3.609375 -28.800781 2.859375 -29.40625 C 2.109375 -30.019531 1.734375 -31.015625 1.734375 -32.390625 C 1.734375 -33.765625 2.109375 -34.753906 2.859375 -35.359375 C 3.609375 -35.972656 4.820312 -36.28125 6.5 -36.28125 C 8.207031 -36.28125 9.425781 -35.972656 10.15625 -35.359375 C 10.882812 -34.753906 11.25 -33.765625 11.25 -32.390625 C 11.25 -31.015625 10.882812 -30.019531 10.15625 -29.40625 C 9.425781 -28.800781 8.207031 -28.5 6.5 -28.5 Z M 0.09375 10.0625 C -0.300781 10.0625 -0.679688 10.046875 -1.046875 10.015625 C -1.410156 9.984375 -1.765625 9.9375 -2.109375 9.875 C -3.234375 9.695312 -4.03125 9.222656 -4.5 8.453125 C -4.976562 7.691406 -5.171875 6.796875 -5.078125 5.765625 C -4.984375 4.785156 -4.585938 4.21875 -3.890625 4.0625 C -3.191406 3.914062 -2.1875 3.890625 -0.875 3.984375 C 0.226562 4.015625 1.128906 3.722656 1.828125 3.109375 C 2.523438 2.503906 2.875 1.515625 2.875 0.140625 C 2.875 -1.296875 2.867188 -2.984375 2.859375 -4.921875 C 2.847656 -6.859375 2.84375 -9.132812 2.84375 -11.75 C 2.84375 -13.375 2.832031 -14.992188 2.8125 -16.609375 C 2.800781 -18.222656 2.796875 -19.820312 2.796875 -21.40625 C 2.796875 -24 4.03125 -25.296875 6.5 -25.296875 C 8.9375 -25.296875 10.15625 -24 10.15625 -21.40625 C 10.15625 -19.820312 10.160156 -18.222656 10.171875 -16.609375 C 10.191406 -14.992188 10.203125 -13.375 10.203125 -11.75 C 10.203125 -9.039062 10.203125 -6.675781 10.203125 -4.65625 C 10.203125 -2.644531 10.21875 -0.878906 10.25 0.640625 C 10.28125 2.929688 9.882812 4.769531 9.0625 6.15625 C 8.238281 7.539062 7.0625 8.535156 5.53125 9.140625 C 4.007812 9.753906 2.195312 10.0625 0.09375 10.0625 Z M 0.09375 10.0625 "/></g></g></g><g fill="#fdfefe" fill-opacity="1"><g transform="translate(282.609772, 275.586968)"><g><path d="M 6.5 -28.5 C 4.820312 -28.5 3.609375 -28.800781 2.859375 -29.40625 C 2.109375 -30.019531 1.734375 -31.015625 1.734375 -32.390625 C 1.734375 -33.765625 2.109375 -34.753906 2.859375 -35.359375 C 3.609375 -35.972656 4.820312 -36.28125 6.5 -36.28125 C 8.207031 -36.28125 9.425781 -35.972656 10.15625 -35.359375 C 10.882812 -34.753906 11.25 -33.765625 11.25 -32.390625 C 11.25 -31.015625 10.882812 -30.019531 10.15625 -29.40625 C 9.425781 -28.800781 8.207031 -28.5 6.5 -28.5 Z M 6.640625 0 C 4.046875 0 2.75 -1.296875 2.75 -3.890625 L 2.75 -7.78125 C 2.71875 -11.164062 2.703125 -13.929688 2.703125 -16.078125 C 2.703125 -18.234375 2.6875 -20.023438 2.65625 -21.453125 C 2.65625 -24.015625 3.953125 -25.296875 6.546875 -25.296875 L 6.59375 -25.296875 C 9.1875 -25.296875 10.484375 -24 10.484375 -21.40625 C 10.484375 -19.820312 10.484375 -18.160156 10.484375 -16.421875 C 10.484375 -14.679688 10.46875 -13.113281 10.4375 -11.71875 C 10.40625 -10.40625 10.394531 -9.097656 10.40625 -7.796875 C 10.425781 -6.503906 10.4375 -5.203125 10.4375 -3.890625 C 10.488281 -1.296875 9.222656 0 6.640625 0 Z M 6.640625 0 "/></g></g></g><g fill="#fdfefe" fill-opacity="1"><g transform="translate(295.599456, 275.586968)"><g><path d="M 21.234375 -33.359375 C 23.816406 -33.359375 25.109375 -32.0625 25.109375 -29.46875 C 25.085938 -26.476562 25.0625 -23.523438 25.03125 -20.609375 C 25 -17.691406 24.984375 -14.726562 24.984375 -11.71875 C 24.984375 -10.375 24.988281 -9.0625 25 -7.78125 C 25.019531 -6.5 25.046875 -5.203125 25.078125 -3.890625 C 25.128906 -1.296875 24.085938 0 21.953125 0 C 19.816406 0 18.597656 -0.441406 18.296875 -1.328125 C 18.234375 -1.566406 18.171875 -1.800781 18.109375 -2.03125 C 18.054688 -2.257812 18 -2.484375 17.9375 -2.703125 C 17.320312 -1.878906 16.488281 -1.140625 15.4375 -0.484375 C 14.382812 0.171875 13.082031 0.5 11.53125 0.5 C 9.695312 0.5 8.03125 0.117188 6.53125 -0.640625 C 5.039062 -1.398438 3.851562 -2.695312 2.96875 -4.53125 C 2.082031 -6.363281 1.640625 -8.878906 1.640625 -12.078125 C 1.640625 -15.097656 2.070312 -17.613281 2.9375 -19.625 C 3.8125 -21.632812 4.988281 -23.144531 6.46875 -24.15625 C 7.945312 -25.164062 9.585938 -25.671875 11.390625 -25.671875 C 12.640625 -25.671875 13.757812 -25.363281 14.75 -24.75 C 15.738281 -24.132812 16.539062 -23.3125 17.15625 -22.28125 C 17.125 -23.46875 17.109375 -24.65625 17.109375 -25.84375 C 17.109375 -27.039062 17.09375 -28.25 17.0625 -29.46875 C 17.0625 -32.0625 18.359375 -33.359375 20.953125 -33.359375 Z M 13.671875 -5.953125 C 14.472656 -5.953125 15.128906 -6.066406 15.640625 -6.296875 C 16.160156 -6.523438 16.617188 -6.863281 17.015625 -7.3125 C 17.015625 -8.050781 17.019531 -8.773438 17.03125 -9.484375 C 17.050781 -10.203125 17.078125 -10.945312 17.109375 -11.71875 C 17.140625 -12.59375 17.15625 -13.472656 17.15625 -14.359375 C 17.15625 -15.242188 17.15625 -16.113281 17.15625 -16.96875 C 16.882812 -17.914062 16.410156 -18.570312 15.734375 -18.9375 C 15.066406 -19.300781 14.320312 -19.484375 13.5 -19.484375 C 12.707031 -19.484375 11.972656 -19.289062 11.296875 -18.90625 C 10.628906 -18.53125 10.085938 -17.847656 9.671875 -16.859375 C 9.265625 -15.867188 9.0625 -14.425781 9.0625 -12.53125 C 9.0625 -10.125 9.460938 -8.425781 10.265625 -7.4375 C 11.078125 -6.445312 12.210938 -5.953125 13.671875 -5.953125 Z M 13.671875 -5.953125 "/></g></g></g></svg>